<?xml version="1.0" encoding="UTF-8" ?>
<!DOCTYPE svg PUBLIC "-//W3C//DTD SVG 1.1//EN" "http://www.w3.org/Graphics/SVG/1.1/DTD/svg11.dtd">
<svg width="53pt" height="51pt" viewBox="0 0 53 51" version="1.1" xmlns="http://www.w3.org/2000/svg">
<g id="#ffffffff">
<path fill="#ffffff" opacity="1.00" d=" M 24.52 21.01 C 24.27 19.17 26.04 18.47 27.26 17.60 C 27.53 22.17 28.64 27.22 26.03 31.35 C 24.22 28.20 24.19 24.52 24.52 21.01 Z" />
<path fill="#ffffff" opacity="1.00" d=" M 24.66 33.75 C 25.55 33.72 26.44 33.69 27.33 33.65 C 27.36 35.28 27.43 36.92 27.54 38.55 C 26.58 38.42 25.61 38.30 24.65 38.19 C 24.69 36.71 24.70 35.23 24.66 33.75 Z" />
</g>
<g id="#ff5d70ff">
<path fill="#ff5d70" opacity="1.00" d=" M 23.61 7.58 C 26.28 7.33 29.41 7.26 30.63 10.17 C 34.88 18.18 39.34 26.10 43.56 34.13 C 46.22 38.12 42.62 43.73 38.02 43.42 C 30.01 43.44 21.99 43.48 13.98 43.40 C 11.00 43.66 8.13 40.95 8.42 37.93 C 8.40 32.74 11.98 28.51 14.34 24.15 C 17.83 18.85 19.93 12.77 23.61 7.58 M 24.52 21.01 C 24.19 24.52 24.22 28.20 26.03 31.35 C 28.64 27.22 27.53 22.17 27.26 17.60 C 26.04 18.47 24.27 19.17 24.52 21.01 M 24.66 33.75 C 24.70 35.23 24.69 36.71 24.65 38.19 C 25.61 38.30 26.58 38.42 27.54 38.55 C 27.43 36.92 27.36 35.28 27.33 33.65 C 26.44 33.69 25.55 33.72 24.66 33.75 Z" />
</g>
</svg>
