<?xml version="1.0" encoding="UTF-8" ?>
<!DOCTYPE svg PUBLIC "-//W3C//DTD SVG 1.1//EN" "http://www.w3.org/Graphics/SVG/1.1/DTD/svg11.dtd">
<svg width="35pt" height="50pt" viewBox="0 0 35 50" version="1.1" xmlns="http://www.w3.org/2000/svg">
<g id="#ffffffff">
</g>
<g id="#2f2d51ff">
<path fill="#2f2d51" opacity="1.00" d=" M 12.59 4.58 C 15.86 4.08 19.19 4.08 22.47 4.54 C 22.84 9.27 22.62 14.01 22.81 18.75 C 25.21 19.10 27.63 19.35 30.05 19.57 C 29.60 23.27 26.41 25.51 24.04 28.04 C 21.87 30.13 20.10 32.59 17.95 34.69 C 15.19 32.61 13.00 29.88 10.61 27.39 C 8.47 24.97 5.83 22.74 5.01 19.48 C 7.43 19.33 9.86 19.25 12.28 19.17 C 12.50 14.31 12.29 9.44 12.59 4.58 Z" />
</g>
<g id="#2d2b4fff">
<path fill="#2d2b4f" opacity="1.00" d=" M 5.53 39.54 C 13.51 38.95 21.55 39.06 29.54 39.47 C 29.66 40.87 29.72 42.28 29.73 43.69 C 25.91 44.79 21.92 44.37 18.00 44.43 C 13.78 44.33 9.43 44.91 5.35 43.52 C 5.36 42.19 5.42 40.87 5.53 39.54 Z" />
</g>
</svg>
