<?xml version="1.0" encoding="UTF-8" ?>
<!DOCTYPE svg PUBLIC "-//W3C//DTD SVG 1.1//EN" "http://www.w3.org/Graphics/SVG/1.1/DTD/svg11.dtd">
<svg width="106pt" height="152pt" viewBox="0 0 106 152" version="1.1" xmlns="http://www.w3.org/2000/svg">
<g id="#2f2d51ff">
</g>
<g id="#ffffffff">
<path fill="#ffffff" opacity="1.00" d=" M 36.08 11.08 C 47.05 10.93 58.03 10.93 69.01 11.08 C 67.82 26.25 68.14 41.46 68.09 56.66 C 75.70 56.37 83.30 55.83 90.91 56.06 C 91.02 59.90 91.41 63.81 90.68 67.61 C 86.28 72.86 80.73 77.06 76.45 82.44 C 71.70 88.63 65.44 93.43 60.35 99.33 C 58.41 101.78 56.58 104.38 54.02 106.25 C 52.16 104.68 50.40 103.00 48.76 101.22 C 42.74 94.90 36.01 89.24 30.62 82.34 C 25.54 76.42 20.40 70.54 15.39 64.56 C 14.54 62.16 15.03 59.56 15.05 57.08 C 22.00 56.76 28.97 57.24 35.92 56.92 C 36.19 41.64 35.81 26.35 36.08 11.08 Z" />
<path fill="#ffffff" opacity="1.00" d=" M 16.08 118.08 C 30.38 117.64 44.68 118.60 58.99 118.33 C 69.64 118.09 80.28 117.79 90.93 118.08 C 91.11 123.69 90.98 129.31 90.91 134.93 C 65.97 135.05 41.02 135.06 16.08 134.92 C 15.91 129.31 15.91 123.69 16.08 118.08 Z" />
</g>
</svg>
