<?xml version="1.0" encoding="UTF-8" ?>
<!DOCTYPE svg PUBLIC "-//W3C//DTD SVG 1.1//EN" "http://www.w3.org/Graphics/SVG/1.1/DTD/svg11.dtd">
<svg width="574pt" height="147pt" viewBox="0 0 574 147" version="1.1" xmlns="http://www.w3.org/2000/svg">
<g id="#2f2d51ff">
</g>
<g id="#ffffffff">
<path fill="#ffffff" opacity="1.00" d=" M 280.82 23.35 C 287.92 23.34 295.01 23.29 302.11 23.37 C 302.13 32.71 302.10 42.06 302.12 51.40 C 307.36 42.41 320.00 40.06 328.77 45.00 C 334.37 48.61 336.73 55.59 336.73 61.99 C 336.74 73.97 336.73 85.95 336.74 97.93 C 329.64 97.92 322.54 97.95 315.45 97.93 C 315.42 87.61 315.57 77.28 315.38 66.96 C 315.48 62.86 311.14 59.61 307.27 61.12 C 304.10 61.67 301.98 64.75 302.15 67.89 C 302.03 77.90 302.16 87.92 302.11 97.93 C 295.01 97.97 287.92 97.83 280.83 98.09 C 280.80 73.17 280.82 48.26 280.82 23.35 Z" />
<path fill="#ffffff" opacity="1.00" d=" M 179.46 43.68 C 179.31 38.31 179.34 32.94 179.42 27.56 C 186.51 27.49 193.60 27.55 200.70 27.54 C 200.72 33.09 200.69 38.65 200.72 44.20 C 204.39 44.20 208.06 44.20 211.73 44.20 C 211.73 49.10 211.73 53.99 211.73 58.88 C 208.07 58.88 204.41 58.88 200.75 58.88 C 201.16 66.31 199.67 73.99 201.73 81.22 C 204.68 81.82 207.69 81.93 210.69 81.93 C 210.69 87.28 210.72 92.64 210.67 98.00 C 202.32 98.58 193.32 99.25 185.67 95.23 C 181.34 92.87 179.51 87.74 179.45 83.04 C 179.29 75.09 179.39 67.14 179.40 59.18 C 176.77 58.97 174.14 58.85 171.51 58.84 C 171.53 53.98 171.52 49.11 171.53 44.25 C 174.18 44.28 176.87 44.38 179.46 43.68 Z" />
<path fill="#ffffff" opacity="1.00" d=" M 34.44 48.44 C 41.80 38.38 59.62 39.64 64.91 51.17 C 67.85 47.67 71.11 44.01 75.69 42.75 C 82.31 40.53 90.28 41.61 95.34 46.67 C 99.42 50.61 100.43 56.57 100.51 62.00 C 100.54 74.14 100.56 86.28 100.53 98.42 C 93.20 98.41 85.88 98.44 78.56 98.40 C 78.52 88.25 78.57 78.09 78.54 67.93 C 78.62 65.83 77.94 63.83 77.24 61.88 C 73.56 58.88 67.56 60.64 66.63 65.41 C 66.21 76.41 66.59 87.44 66.44 98.45 C 59.12 98.47 51.81 98.45 44.50 98.46 C 44.41 87.26 44.54 76.06 44.41 64.86 C 43.36 63.14 42.40 60.72 40.08 60.53 C 38.09 60.00 36.22 60.95 34.44 61.70 C 34.40 57.28 34.41 52.86 34.44 48.44 Z" />
<path fill="#ffffff" opacity="1.00" d=" M 10.76 42.17 C 12.84 42.20 14.91 42.25 16.98 42.37 C 17.40 44.39 19.08 45.54 20.71 46.57 C 23.17 46.11 25.00 44.50 26.02 42.23 C 27.96 42.21 29.90 42.20 31.84 42.20 C 31.84 48.63 31.87 55.05 31.82 61.48 C 28.39 62.05 24.56 60.72 21.39 62.32 C 24.87 62.51 28.36 62.33 31.84 62.53 C 31.84 74.39 31.90 86.26 31.81 98.12 C 29.73 98.09 27.65 97.99 25.56 97.90 C 25.04 96.82 24.52 95.75 24.01 94.67 C 21.76 94.16 19.43 94.22 17.59 95.78 C 17.52 96.28 17.38 97.29 17.31 97.79 C 15.13 97.92 12.95 98.05 10.77 98.14 C 10.74 86.28 10.76 74.43 10.76 62.57 C 14.49 62.20 18.31 62.88 21.98 61.94 C 18.27 61.37 14.50 61.73 10.77 61.45 C 10.75 55.03 10.76 48.60 10.76 42.17 Z" />
<path fill="#ffffff" opacity="1.00" d=" M 114.59 49.69 C 121.54 44.37 130.74 44.40 139.07 44.52 C 146.90 44.46 155.94 45.37 161.51 51.54 C 166.42 57.23 164.15 65.21 164.66 72.03 C 165.20 80.94 163.21 90.26 166.51 98.80 C 159.17 98.72 151.83 99.04 144.50 98.76 C 143.99 96.89 143.51 95.01 143.06 93.13 C 139.16 98.45 132.52 100.97 126.04 100.55 C 118.93 101.00 110.49 98.68 107.18 91.77 C 104.37 85.40 105.09 76.43 111.35 72.32 C 117.87 67.70 126.17 67.87 133.77 66.94 C 136.58 66.47 139.76 66.83 142.15 64.99 C 142.97 63.39 143.26 60.55 141.31 59.64 C 137.38 57.55 130.48 58.26 130.01 63.70 C 122.74 63.97 115.47 63.79 108.19 63.80 C 108.65 58.59 110.23 52.98 114.59 49.69 M 129.79 78.74 C 126.77 80.32 127.15 85.38 130.29 86.60 C 133.55 87.88 137.65 87.59 140.44 85.37 C 143.26 82.89 142.45 78.77 142.92 75.45 C 138.90 77.90 134.05 77.08 129.79 78.74 Z" />
<path fill="#ffffff" opacity="1.00" d=" M 232.81 45.80 C 244.17 42.98 257.59 43.14 267.09 50.81 C 272.08 54.60 274.71 60.60 275.63 66.66 C 271.79 67.19 267.80 67.74 264.00 66.76 C 260.67 67.66 257.18 67.08 253.78 67.22 C 252.37 64.83 251.08 61.66 247.97 61.19 C 244.15 60.05 238.86 61.15 237.51 65.39 C 236.04 70.18 236.02 75.55 237.79 80.26 C 239.51 84.22 244.40 83.99 247.99 83.54 C 251.41 83.13 252.59 79.50 253.63 76.76 C 260.97 76.79 268.30 76.74 275.64 76.78 C 274.51 83.15 271.96 89.62 266.78 93.77 C 262.63 97.34 257.33 99.10 252.06 100.22 C 243.49 101.23 234.32 100.73 226.74 96.20 C 211.53 87.46 209.95 63.38 222.56 51.75 C 225.51 49.04 229.15 47.31 232.81 45.80 Z" />
<path fill="#ffffff" opacity="1.00" d=" M 68.10 109.96 C 71.80 108.76 76.14 110.89 77.34 114.61 C 77.91 117.31 77.83 120.58 75.57 122.52 C 72.28 126.15 65.39 125.12 63.55 120.50 C 61.42 116.56 63.76 111.10 68.10 109.96 M 67.45 113.40 C 64.04 115.65 65.80 122.10 70.01 121.77 C 73.15 122.40 75.39 118.99 74.69 116.17 C 74.41 112.86 69.85 111.06 67.45 113.40 Z" />
<path fill="#ffffff" opacity="1.00" d=" M 118.79 110.40 C 119.74 110.27 120.69 110.15 121.64 110.01 C 121.67 113.87 121.67 117.73 121.65 121.59 C 123.83 121.64 126.01 121.66 128.20 121.68 C 128.21 122.36 128.22 123.74 128.23 124.43 C 125.11 124.44 121.99 124.44 118.87 124.40 C 118.85 119.73 118.92 115.06 118.79 110.40 Z" />
<path fill="#ffffff" opacity="1.00" d=" M 275.07 110.13 C 280.42 107.78 286.63 113.39 284.98 118.94 C 284.13 123.98 277.58 126.40 273.52 123.45 C 268.66 120.41 269.52 111.90 275.07 110.13 M 273.32 117.96 C 273.35 121.66 277.46 122.14 280.30 121.64 C 282.09 119.51 283.43 116.26 281.14 113.96 C 278.40 110.22 272.04 113.55 273.32 117.96 Z" />
<path fill="#ffffff" opacity="1.00" d=" M 325.63 113.93 C 326.71 110.93 329.96 108.54 333.17 110.06 C 334.99 110.41 335.63 112.18 336.14 113.72 C 334.55 114.10 333.20 113.61 332.19 112.37 C 331.20 112.34 330.22 112.31 329.24 112.29 C 329.22 113.31 329.21 114.33 329.20 115.35 C 331.74 115.97 335.23 116.13 336.15 119.12 C 337.20 122.12 333.92 125.01 331.02 124.72 C 328.25 124.99 326.41 122.70 325.01 120.67 C 327.20 118.54 328.90 121.16 330.58 122.47 C 331.41 122.33 332.25 122.19 333.09 122.05 C 333.25 121.23 333.42 120.41 333.59 119.59 C 331.36 118.75 329.11 117.97 326.90 117.13 C 326.48 116.06 326.06 114.99 325.63 113.93 Z" />
<path fill="#ffffff" opacity="1.00" d=" M 12.49 109.76 C 15.43 109.98 19.07 109.25 21.37 111.56 C 22.28 113.36 21.90 115.64 20.35 116.98 C 22.83 118.46 22.86 121.27 21.41 123.53 C 18.53 124.55 15.46 124.52 12.44 124.46 C 12.43 119.55 12.40 114.65 12.49 109.76 M 15.24 112.14 C 15.23 113.40 15.22 114.65 15.22 115.91 C 16.87 115.68 19.09 116.14 19.50 113.97 C 18.81 112.10 16.84 112.34 15.24 112.14 M 15.18 118.13 C 15.24 119.60 15.30 121.07 15.38 122.53 C 16.81 122.19 18.22 121.82 19.64 121.43 C 19.56 120.49 19.48 119.55 19.40 118.62 C 18.00 118.44 16.59 118.28 15.18 118.13 Z" />
<path fill="#ffffff" opacity="1.00" d=" M 169.38 109.81 C 172.31 110.51 178.40 107.79 178.48 112.53 C 176.33 112.54 174.18 112.54 172.03 112.52 C 172.10 113.73 172.19 114.95 172.31 116.17 C 174.04 115.95 175.77 115.77 177.51 115.63 L 177.72 118.38 C 175.80 118.40 173.88 118.42 171.96 118.44 C 171.96 119.51 171.95 120.58 171.96 121.66 C 174.05 121.67 176.14 121.68 178.23 121.69 C 178.25 122.37 178.28 123.74 178.30 124.42 C 175.30 124.43 172.31 124.43 169.32 124.43 C 169.32 119.56 169.27 114.68 169.38 109.81 Z" />
<path fill="#ffffff" opacity="1.00" d=" M 218.75 109.83 C 222.67 110.05 226.76 109.24 230.57 110.29 L 230.87 112.53 C 229.32 112.55 227.77 112.55 226.23 112.56 C 226.18 116.51 226.19 120.47 226.19 124.42 C 225.27 124.42 224.35 124.43 223.44 124.44 C 223.43 120.50 223.43 116.56 223.42 112.62 C 221.82 112.57 220.21 112.53 218.61 112.49 L 218.75 109.83 Z" />
</g>
</svg>
